<svg width="23" height="21" viewBox="0 0 23 21" fill="none" xmlns="http://www.w3.org/2000/svg">
<path d="M10.6123 0.92763C10.9116 0.00630903 12.215 0.00631094 12.5144 0.927633L14.3414 6.55088C14.4753 6.9629 14.8593 7.24187 15.2925 7.24187H21.205C22.1737 7.24187 22.5765 8.48147 21.7928 9.05088L17.0094 12.5263C16.659 12.781 16.5123 13.2323 16.6462 13.6443L18.4732 19.2677C18.7726 20.189 17.7181 20.9551 16.9344 20.3857L12.1511 16.9103C11.8006 16.6557 11.326 16.6557 10.9755 16.9103L6.19226 20.3857C5.40855 20.9551 4.35405 20.189 4.6534 19.2677L6.48048 13.6443C6.61434 13.2323 6.46769 12.781 6.11721 12.5263L1.33383 9.05088C0.550133 8.48147 0.952912 7.24187 1.92163 7.24187H7.83415C8.26738 7.24187 8.65134 6.9629 8.78521 6.55088L10.6123 0.92763Z" fill="#FFA858"/>
</svg>
